# xmcd
#
# Track frame offsets:
#	150
#	15573
#	33336
#	55735
#	76153
#	97585
#	117890
#	137493
#	154172
#	172266
#	188108
#	208705
#	227800
#	243681
#
# Disc length: 3463 seconds
#
# Revision: 1
# Processed by: cddbd v1.5.2PL0 Copyright (c) Steve Scherf et al.
# Submitted via: EasyCDDAExtractor 2010.4.0.0
#
DISCID=ae0d850e
DTITLE=Various Artist - Lots of Love ทั้งหมดใจ...ฉันให้เธอ
DYEAR=2009
DGENRE=Pop
TTITLE0=เตชินท์/คำตอบของหัวใจ
TTITLE1=Calories Blah Blah/อย่าไปไหนอีกนะ
TTITLE2=รุจ ศุภรุจ/เธอเป็นคนเดียวที่ฉันรัก
TTITLE3=Potato (Feat. แพท Klear)/แชร์ (Share 2 Gether)
TTITLE4=บอย Peacemaker/ใจฉันเป็นของเธอ
TTITLE5=บี้ สุกฤษฏิ์/มากมาย
TTITLE6=โรส ศิรินทิพย์ and ปาล์ม Instinct/เธอทำให้ฉันคิดถึงแต่เธอ
TTITLE7=แอน ธิติมา/ไม่ใช่เรื่องบังเอิญ
TTITLE8=เอ๊ะ ศศิกานต์/ไม่อยากบอกรัก
TTITLE9=โอ๊ค สมิทธิ์/หนึ่งนาทีที่แล้ว
TTITLE10=Potato/รักเธอไปทุกวัน
TTITLE11=Clash/เกินคำว่ารัก
TTITLE12=ดา Endorphine/รักครั้งใหม่
TTITLE13=Lula/ในวันที่เราต้องไกลห่าง
EXTD=
EXTT0=
EXTT1=
EXTT2=
EXTT3=
EXTT4=
EXTT5=
EXTT6=
EXTT7=
EXTT8=
EXTT9=
EXTT10=
EXTT11=
EXTT12=
EXTT13=
PLAYORDER=
